<svg width="120" height="120" viewBox="0 0 120 120" fill="none" xmlns="http://www.w3.org/2000/svg">
<path fill-rule="evenodd" clip-rule="evenodd" d="M105.924 98.6229C114.711 88.1863 120.006 74.7115 120.006 60C120.006 26.8629 93.1429 0 60.0059 0C26.8688 0 0.00585938 26.8629 0.00585938 60C0.00585938 93.1371 26.8688 120 60.0059 120C71.8627 120 82.9162 116.561 92.2233 110.626L80.1111 98.888C78.1371 96.975 75.4657 96.0158 72.7789 96.1889C70.3087 97.0607 67.7226 97.6869 65.0498 98.0378L64.8047 98.1023L64.8262 98.0665C63.2472 98.2645 61.6385 98.3664 60.0059 98.3664C38.8167 98.3664 21.6394 81.1892 21.6394 60C21.6394 38.8108 38.8167 21.6336 60.0059 21.6336C81.1951 21.6336 98.3723 38.8108 98.3723 60C98.3723 68.6579 95.5045 76.646 90.6669 83.0662L91.2047 83.4023L105.924 98.6229Z" fill="#00E8B5"/>
<circle cx="60" cy="60" r="24" fill="#C74AE3"/>
</svg>
