<svg width="102" height="120" viewBox="0 0 102 120" fill="none" xmlns="http://www.w3.org/2000/svg">
<g clip-path="url(#clip0_15_457)">
<path fill-rule="evenodd" clip-rule="evenodd" d="M61.3838 42.8033C65.0753 40.9709 69.7712 38.2729 74.4738 34.5758C75.4648 36.6263 75.5743 38.4153 75.0626 39.8594C74.7006 40.8775 74.0179 41.7631 73.1219 42.4673C72.151 43.2284 70.9376 43.7835 69.5969 44.0828C67.0528 44.6536 64.082 44.3198 61.3838 42.8022M62.024 61.5815L66.9098 64.3919C56.9337 69.9604 54.2209 80.2997 50.9987 90.3697C47.7776 80.2997 45.0649 69.9593 35.0887 64.3919L39.9746 61.5815C40.9444 61.2166 41.5678 60.272 41.5186 59.2407C41.0706 49.8093 43.628 45.6382 47.0782 43.0203C48.315 42.0824 49.6658 41.6118 50.9987 41.6118C52.3316 41.6118 53.6824 42.0824 54.9192 43.0203C58.3683 45.6393 60.9257 49.8093 60.4788 59.2407C60.4296 60.272 61.0542 61.2166 62.0229 61.5815H62.024ZM50.9998 0C56.6477 0.151311 62.31 1.24276 67.2238 3.36668C70.627 4.83974 73.8012 6.78454 76.6771 9.11095C77.9753 10.1612 79.0446 11.1759 80.2222 12.3441C83.3986 12.4532 88.0409 8.93962 90.1961 5.65193C86.4867 17.7602 69.5622 32.058 57.8454 37.5297C57.8409 37.5275 57.8376 37.5252 57.8342 37.523C55.7315 35.9242 53.3662 35.1243 51.0009 35.1243C48.6357 35.1243 46.2704 35.9242 44.1677 37.523C44.1643 37.5252 44.161 37.5286 44.1565 37.5297C32.4374 32.058 15.514 17.7591 11.8047 5.65193C13.9599 8.93962 18.6011 12.4543 21.7775 12.3441C22.9551 11.177 24.0243 10.1612 25.3226 9.11095C28.1974 6.78454 31.3727 4.83974 34.7759 3.36668C39.6908 1.24276 45.352 0.151311 50.9998 0ZM40.6159 42.8033C36.9255 40.9709 32.2285 38.2729 27.5259 34.5758C26.5348 36.6263 26.4254 38.4153 26.9359 39.8594C27.2979 40.8775 27.9806 41.7631 28.8767 42.4673C29.8487 43.2284 31.062 43.7835 32.4028 44.0828C34.9468 44.6536 37.9176 44.3198 40.6148 42.8022" fill="black"/>
<path fill-rule="evenodd" clip-rule="evenodd" d="M79.6245 30.0468C82.2133 27.4455 84.4947 24.5662 86.3282 21.9961L87.26 23.7417C90.2588 29.7163 91.8174 35.6675 91.8174 42.3642L91.8107 52.9916L91.8665 58.5C92.0833 72.0246 95.0228 85.7071 101.68 98.2293L87.7516 87.0456L77.8972 102.97L67.5445 93.2649L50.9999 120L34.4553 93.266L24.1026 102.971L14.2483 87.0467L0.320312 98.2304C6.97704 85.7082 9.91547 72.0246 10.1333 58.5011L10.1892 52.9927L10.1825 42.3653C10.1825 35.6675 11.74 29.7174 14.7399 23.7429L15.6706 21.9972C17.5051 24.5662 19.7855 27.4455 22.3742 30.0479L21.5653 31.7201C19.9944 34.9677 19.4749 38.5992 20.6983 42.0538C21.4871 44.2778 22.9261 46.1859 24.7819 47.6423C26.5841 49.0564 28.717 50.0099 30.9493 50.5105C32.404 50.8365 33.8855 50.9711 35.3581 50.9255C35.0151 52.8647 34.8642 54.8752 34.8553 56.9246L21.7173 64.4812L31.8554 70.1398C32.6654 70.5927 33.4375 71.11 34.1615 71.6897C42.5198 79.1629 47.5453 101.271 50.9988 112.07C54.4523 101.271 59.4778 79.1629 67.8362 71.6897C68.5601 71.1111 69.3322 70.5927 70.1422 70.1398L80.2804 64.4812L67.1423 56.9246C67.1323 54.8752 66.9826 52.8647 66.6396 50.9255C68.1121 50.9711 69.5936 50.8365 71.0483 50.5105C73.2806 50.0099 75.4135 49.0564 77.2157 47.6423C79.0715 46.1859 80.5105 44.2778 81.2993 42.0538C82.5227 38.6003 82.0032 34.9688 80.4323 31.7201L79.6234 30.0479L79.6245 30.0468Z" fill="black"/>
</g>
<defs>
<clipPath id="clip0_15_457">
<rect width="101.359" height="120" fill="white" transform="translate(0.320312)"/>
</clipPath>
</defs>
</svg>
