<svg width="104" height="120" viewBox="0 0 104 120" fill="none" xmlns="http://www.w3.org/2000/svg">
<path fill-rule="evenodd" clip-rule="evenodd" d="M38.7227 6.78571C31.6234 10.5094 25.8154 13.6607 25.8168 13.789C25.8201 14.1196 42.8547 22.8071 43.4593 22.786C43.7342 22.7769 45.7294 21.8518 47.893 20.7312L51.827 18.6938L56.1233 20.9177L60.4195 23.1421L67.4553 19.9585C78.0568 15.1614 79.1577 14.6357 78.9854 14.4593C78.7564 14.2248 74.954 12.1681 64.6375 6.69873C59.6517 4.05533 54.8124 1.46382 53.8833 0.939076C52.9537 0.413855 52.0671 -0.00805239 51.912 0.000116656C51.7569 0.0082857 45.8215 3.06159 38.7222 6.78523L38.7227 6.78571ZM7.58587 23.0214L0.195957 26.8657V43.7357C0.195957 53.0143 0.292828 60.6058 0.412128 60.6058C0.531428 60.6058 4.16673 59.0186 8.49159 57.0787L16.3554 53.5516V35.7695L20.1982 37.8776C23.1593 39.5008 26.1227 41.1202 29.087 42.7367L34.133 45.4878L36.3782 44.4652C37.7864 43.8227 39.1917 43.1745 40.5942 42.5195C41.678 42.0111 44.3383 40.8045 46.5063 39.8377C48.6742 38.8703 50.6808 37.8973 50.9652 37.6757C51.3432 37.3812 46.7344 34.8166 33.9182 28.1891C24.2578 23.1935 16.0438 19.1219 15.6649 19.1416C15.286 19.1613 11.6507 20.9066 7.58587 23.021V23.0214ZM80.3163 24.1007C75.2833 26.3885 71.1617 28.352 71.157 28.4639C71.1527 28.5759 73.8956 30.2184 77.2532 32.1136C80.6103 34.0093 83.3575 35.6614 83.3575 35.7858C83.3575 35.9103 80.3865 37.3596 76.7559 39.0078C73.1244 40.6555 63.9465 44.8294 56.3595 48.283L30.9376 59.8542C24.5427 62.7653 18.7786 65.389 18.1282 65.6855C5.06625 71.6397 1.47628 73.2918 0.983336 73.5753C0.487526 73.8608 0.375384 75.5196 0.287102 83.8453L0.181641 93.7755L6.79038 97.1661L13.3986 100.557L22.5623 96.3924C27.6025 94.1022 31.726 92.1085 31.726 91.9614C31.726 91.8144 30.7945 91.2041 29.6568 90.603C28.5187 90.0018 26.1685 88.6717 24.4343 87.6458C22.7002 86.6199 20.9713 85.679 20.5915 85.554C20.2121 85.4296 19.9072 85.2119 19.9134 85.0696C19.9196 84.9279 23.9548 82.9981 28.8799 80.7804C38.4459 76.4734 45.7666 73.1539 61.4832 65.9973C68.5109 62.7975 75.54 59.601 82.5692 56.4045C88.747 53.5963 95.9303 50.3171 98.5315 49.1167L103.261 46.9346L103.366 36.8915L103.471 26.8489L96.7687 23.3847C93.0819 21.4794 89.9309 19.9254 89.7658 19.9311C89.6007 19.9364 85.3479 21.8129 80.3154 24.1012L80.3163 24.1007ZM101.466 60.3324C100.478 60.8182 98.5272 61.7278 97.1304 62.3535C95.7337 62.9791 93.0833 64.1833 91.2404 65.03L87.8904 66.5687L87.8141 75.3855C87.7721 80.2345 87.5946 84.1807 87.4199 84.1552C87.0234 84.0956 80.7444 80.853 74.4329 77.4475C69.8776 74.9895 69.5913 74.892 68.5209 75.4259C67.902 75.7348 64.2032 77.4052 60.3011 79.1385C56.3991 80.8717 53.0797 82.4032 52.9232 82.5416C52.7676 82.68 60.6204 86.9658 70.3748 92.0667L88.1095 101.34L95.6855 97.3939C99.8519 95.2238 103.395 93.244 103.558 92.9951C103.925 92.4352 103.894 59.3718 103.526 59.4165C103.38 59.4342 102.453 59.8461 101.465 60.3319L101.466 60.3324ZM59.5128 99.1406C58.1986 99.7095 56.8849 100.279 55.5716 100.85C51.6056 102.578 52.3825 102.635 47.6639 100.27C44.5211 98.6947 43.1663 98.2084 42.5784 98.4443C42.1375 98.6211 38.3414 100.341 34.1425 102.266C29.9436 104.191 26.3627 105.766 26.1847 105.766C24.4229 105.766 27.3519 107.528 38.653 113.268L51.9067 120L57.4833 117.228C60.5502 115.703 66.7366 112.649 71.2309 110.443C75.7247 108.235 79.3462 106.372 79.2784 106.301C79.2102 106.231 75.4446 104.284 70.9102 101.975L62.6657 97.7759L59.5128 99.1415V99.1406Z" fill="#08A2C9"/>
</svg>
