<svg width="106" height="120" viewBox="0 0 106 120" fill="none" xmlns="http://www.w3.org/2000/svg">
<g clip-path="url(#clip0_15_462)">
<path d="M105.151 30.31V60.2106L79.2509 45.2603L53.3511 30.2398L79.3211 15.3597L105.221 0.409454L105.151 30.31Z" fill="#072B38"/>
<path d="M53.2808 60.1404V90.0409L27.381 75.0907L1.4812 60.0702L27.381 45.1901L53.2808 30.2398V60.1404Z" fill="#144556"/>
<path d="M1.4812 30.1696V0.269043L27.381 15.2193L53.2808 30.1696L27.381 45.1901L1.4812 60.0702V30.1696Z" fill="#41D9BF"/>
<path d="M1.41113 89.9708L1.48132 60.0702L27.3811 75.0907L53.2809 90.0409L27.3811 104.991L1.41113 119.871V89.9708Z" fill="#072B38"/>
<path d="M79.2509 45.2603L53.3511 30.2398V90.0409L79.1807 105.061L105.08 120.012V90.1111L105.151 60.2106L79.2509 45.2603Z" fill="#41D9BF"/>
</g>
<defs>
<clipPath id="clip0_15_462">
<rect width="104.348" height="120" fill="white" transform="translate(0.826172)"/>
</clipPath>
</defs>
</svg>
