<svg width="112" height="120" viewBox="0 0 112 120" fill="none" xmlns="http://www.w3.org/2000/svg">
<g clip-path="url(#clip0_15_469)">
<path d="M92.8461 9.84613C84.923 3.30767 74.0769 0.0769043 60.2307 0.0769043H25.7692V4.92306H59.6153C71.3846 4.92306 82 7.30767 88.5384 13C95.0769 18.6923 99.923 27 99.923 37.3077C99.923 47.6154 95.6153 54.6154 88.923 60.2308C82.2307 65.8461 70.0769 68.3077 58 68.3077H19.1538V73.1538H58.3077C72.8461 73.1538 84.2307 70 92.4615 63.6923C100.615 57.3846 104.769 48.4615 104.769 37C104.769 25.5384 100.769 16.3077 92.8461 9.84613Z" fill="black"/>
<path d="M89.9231 16.7692C85.0001 13 79.3847 9.99997 63.3847 9.99997H36.7693V14.6923C36.7693 14.6923 48.6924 14.5384 62.7693 14.6923C76.3847 14.8461 81.3847 16.3846 86.0001 19.7692C91.8462 24.0769 95.5385 29.4615 95.5385 36.923C95.5385 44.3846 91.8462 49.2307 85.9231 53.6153C79.9231 58.0769 70.6924 58.0769 66.9231 58.2307H47.1539V62.923C47.1539 62.923 56.2308 63.0769 61.9231 62.923C74.8462 62.6154 82.5385 61.8461 89.6924 56.5384C96.3847 51.5384 99.9231 45 99.9231 36.6923C99.9231 25.7692 94.3847 20.3077 89.9231 16.7692Z" fill="black"/>
<path d="M87.5385 23C83.8462 20.6923 80.6154 19.1538 65.3077 19.1538H46.1539V22.2308H64.7693C78.3077 22.2308 83.3847 24.6154 85 25.6154C88.077 27.4615 92.077 30.5385 92.077 36.6923C92.077 40.6154 89.7693 45.6154 86.3077 47.5385C83.1539 49.3077 77.3847 50.9231 67.3077 50.9231H4.84619V54H67.4616C79.6924 54 83.8462 52.6154 88.1539 50.2308C92.4616 47.8461 95.3847 42.9231 95.3847 36.6923C95.3847 29.6154 91.4616 25.4615 87.5385 23Z" fill="black"/>
<path d="M99.6923 57.0769C91.7692 50.5384 80.9231 47.3077 67.0769 47.3077H44V52.1538H66.3846C78.1538 52.1538 88.7692 54.6154 95.3077 60.2308C101.846 65.8461 106.769 74.2308 106.769 84.5384C106.769 94.8461 102.538 101.846 95.7692 107.462C89 113.077 76.9231 115.538 64.8462 115.538H26V120.385H65.1538C79.6923 120.385 91.0769 117.231 99.3077 110.923C107.538 104.615 111.615 95.6923 111.615 84.2308C111.538 72.6154 107.615 63.6154 99.6923 57.0769Z" fill="black"/>
<path d="M96.7692 64C91.8461 60.3077 86.2308 57.2308 70.2308 57.2308H34.0769V61.9231C34.0769 61.9231 55.5384 61.7692 69.6154 61.9231C83.2308 62.0769 88.2307 63.6154 92.8461 67C98.6923 71.3077 102.385 76.6923 102.385 84.1538C102.385 91.6154 98.6923 96.4615 92.7692 100.846C86.7692 105.308 77.5384 105.308 73.7692 105.462H54V110.154C54 110.154 63.1538 110.308 68.7692 110.154C81.6923 109.846 89.3846 109.077 96.5384 103.769C103.231 98.7692 106.769 92.2308 106.769 83.9231C106.769 73.0769 101.308 67.5385 96.7692 64Z" fill="black"/>
<path d="M41.7693 80H75.6924V77.3846H41.7693V80Z" fill="black"/>
<path d="M55.7693 89.1539H75.4616V86.9231H55.7693V89.1539Z" fill="black"/>
<path d="M26 80H36V77.3846H26V80Z" fill="black"/>
<path d="M19.6924 89.3077H50.2308V86.6923H19.6924V89.3077Z" fill="black"/>
<path d="M27.231 22H39.154V19.8462H27.231V22Z" fill="black"/>
<path d="M19 39.5384H46.1538V37.0769H19V39.5384Z" fill="black"/>
<path d="M19.6924 109.846H48.3847V106.769H19.6924V109.846Z" fill="black"/>
<path d="M12.6157 120.077H19.7696V115.539H12.6157V120.077Z" fill="black"/>
<path d="M30.4617 31.8461H75.5386V29.3846H30.4617V31.8461Z" fill="black"/>
<path d="M53 39.5384H74.6923V37.0769H53V39.5384Z" fill="black"/>
<path d="M94.3847 70.6923C90.6924 68.4616 87.4616 66.9231 72.1539 66.9231H47.8462V69.9231H71.6924C85.2309 69.9231 90.3847 72.2308 91.9232 73.1539C94.9232 74.9231 99.0001 77.8462 99.0001 83.8462C99.0001 87.6923 96.6924 92.4616 93.2308 94.3077C90.077 96 84.3078 97.5385 74.2308 97.5385H11.6924V100.538H74.3078C86.5385 100.538 90.6924 99.2308 95.0001 96.9231C99.3078 94.6154 102.154 89.9231 102.154 83.8462C102.231 77.1539 98.3078 73.1539 94.3847 70.6923Z" fill="black"/>
</g>
<defs>
<clipPath id="clip0_15_469">
<rect width="112" height="120" fill="white"/>
</clipPath>
</defs>
</svg>
