<svg width="41" height="41" viewBox="0 0 41 41" fill="none" xmlns="http://www.w3.org/2000/svg">
<g id="Frame 1000002443">
<path id="Subtract" fill-rule="evenodd" clip-rule="evenodd" d="M35.8078 33.3743C38.7371 29.8954 40.502 25.4038 40.502 20.5C40.502 9.4543 31.5476 0.5 20.502 0.5C9.45626 0.5 0.501953 9.4543 0.501953 20.5C0.501953 31.5457 9.45626 40.5 20.502 40.5C24.4542 40.5 28.1387 39.3536 31.2411 37.3752L28.7233 34.9353C27.2412 33.499 25.2148 32.807 23.1974 33.0043C22.8654 33.0755 22.5287 33.1338 22.1877 33.1787C22.159 33.1859 22.1303 33.1932 22.1016 33.2008L22.1087 33.1888C21.5824 33.2548 21.0462 33.2888 20.502 33.2888C13.4389 33.2888 7.71314 27.5631 7.71314 20.5C7.71314 13.4369 13.4389 7.71119 20.502 7.71119C27.565 7.71119 33.2908 13.4369 33.2908 20.5C33.2908 23.386 32.3348 26.0487 30.7223 28.1887L30.9016 28.3008L35.8078 33.3743Z" fill="#00E8B5"/>
<circle id="Ellipse 231" cx="20.5" cy="20.5" r="8" fill="#C74AE3"/>
</g>
</svg>
