<svg width="35" height="41" viewBox="0 0 35 41" fill="none" xmlns="http://www.w3.org/2000/svg">
<g id="Layer_1" clip-path="url(#clip0_31_2926)">
<path id="Vector" fill-rule="evenodd" clip-rule="evenodd" d="M20.9613 14.7678C22.1918 14.157 23.7571 13.2576 25.3246 12.0253C25.655 12.7088 25.6915 13.3051 25.5209 13.7865C25.4002 14.1258 25.1727 14.421 24.874 14.6558C24.5504 14.9094 24.1459 15.0945 23.699 15.1943C22.851 15.3845 21.8607 15.2733 20.9613 14.7674M21.1747 21.0272L22.8033 21.964C19.4779 23.8201 18.5737 27.2666 17.4996 30.6232C16.4259 27.2666 15.5217 23.8198 12.1963 21.964L13.8249 21.0272C14.1482 20.9055 14.356 20.5907 14.3396 20.2469C14.1902 17.1031 15.0427 15.7127 16.1928 14.8401C16.605 14.5275 17.0553 14.3706 17.4996 14.3706C17.9439 14.3706 18.3942 14.5275 18.8065 14.8401C19.9561 15.7131 20.8086 17.1031 20.6596 20.2469C20.6433 20.5907 20.8514 20.9055 21.1743 21.0272H21.1747ZM17.5 0.5C19.3826 0.550437 21.27 0.914252 22.908 1.62223C24.0424 2.11325 25.1004 2.76151 26.0591 3.53698C26.4918 3.88708 26.8482 4.2253 27.2408 4.61471C28.2996 4.65105 29.847 3.47987 30.5654 2.38398C29.329 6.42006 23.6875 11.186 19.7818 13.0099C19.7803 13.0092 19.7792 13.0084 19.7781 13.0077C19.0772 12.4747 18.2888 12.2081 17.5004 12.2081C16.7119 12.2081 15.9235 12.4747 15.2226 13.0077C15.2215 13.0084 15.2204 13.0095 15.2189 13.0099C11.3125 11.186 5.67139 6.41969 4.43494 2.38398C5.15334 3.47987 6.7004 4.65142 7.7592 4.61471C8.15174 4.22567 8.50815 3.88708 8.94091 3.53698C9.89916 2.76151 10.9576 2.11325 12.092 1.62223C13.7303 0.914252 15.6174 0.550437 17.5 0.5ZM14.0387 14.7678C12.8085 14.157 11.2429 13.2576 9.67533 12.0253C9.34499 12.7088 9.30849 13.3051 9.47869 13.7865C9.59936 14.1258 9.82691 14.421 10.1256 14.6558C10.4496 14.9094 10.8541 15.0945 11.301 15.1943C12.149 15.3845 13.1393 15.2733 14.0383 14.7674" fill="white"/>
<path id="Vector_2" fill-rule="evenodd" clip-rule="evenodd" d="M27.0415 10.5156C27.9045 9.64851 28.665 8.68872 29.2761 7.83203L29.5867 8.41391C30.5863 10.4054 31.1058 12.3892 31.1058 14.6214L31.1036 18.1639L31.1222 20C31.1945 24.5082 32.1743 29.069 34.3932 33.2431L29.7506 29.5152L26.4658 34.8233L23.0149 31.5883L17.5 40.5001L11.9851 31.5887L8.53425 34.8237L5.24946 29.5156L0.606812 33.2435C2.82572 29.0694 3.8052 24.5082 3.87782 20.0004L3.89644 18.1642L3.89421 14.6218C3.89421 12.3892 4.41337 10.4058 5.41333 8.41428L5.72356 7.8324C6.33508 8.68872 7.0952 9.64851 7.95811 10.516L7.68848 11.0734C7.16485 12.1559 6.99167 13.3664 7.39947 14.5179C7.66241 15.2593 8.14209 15.8953 8.76069 16.3808C9.36141 16.8521 10.0724 17.17 10.8165 17.3368C11.3014 17.4455 11.7952 17.4904 12.2861 17.4752C12.1717 18.1216 12.1215 18.7917 12.1185 19.4749L7.73913 21.9937L11.1185 23.8799C11.3885 24.0309 11.6459 24.2033 11.8872 24.3966C14.6733 26.8876 16.3485 34.257 17.4996 37.8566C18.6508 34.257 20.326 26.8876 23.1121 24.3966C23.3534 24.2037 23.6108 24.0309 23.8808 23.8799L27.2602 21.9937L22.8808 19.4749C22.8775 18.7917 22.8276 18.1216 22.7132 17.4752C23.2041 17.4904 23.6979 17.4455 24.1828 17.3368C24.9269 17.17 25.6379 16.8521 26.2386 16.3808C26.8572 15.8953 27.3369 15.2593 27.5998 14.5179C28.0076 13.3668 27.8344 12.1563 27.3108 11.0734L27.0412 10.516L27.0415 10.5156Z" fill="white"/>
</g>
<defs>
<clipPath id="clip0_31_2926">
<rect width="33.7864" height="40" fill="white" transform="translate(0.606812 0.5)"/>
</clipPath>
</defs>
</svg>
