<svg width="35" height="41" viewBox="0 0 35 41" fill="none" xmlns="http://www.w3.org/2000/svg">
<path id="Vector" fill-rule="evenodd" clip-rule="evenodd" d="M13.0743 2.7619C10.7079 4.00312 8.77188 5.05356 8.77236 5.09633C8.77347 5.20653 14.4517 8.10238 14.6532 8.09533C14.7448 8.09229 15.4099 7.78395 16.1311 7.41042L17.4424 6.73126L18.8745 7.47256L20.3066 8.21403L22.6519 7.15285C26.1857 5.5538 26.5527 5.37856 26.4952 5.31978C26.4189 5.24161 25.1514 4.55605 21.7126 2.73291C20.0507 1.85178 18.4376 0.987939 18.1279 0.813026C17.818 0.637952 17.5225 0.497316 17.4708 0.500039C17.4191 0.502762 15.4406 1.52053 13.0742 2.76174L13.0743 2.7619ZM2.69537 8.17382L0.232067 9.45524V15.0786C0.232067 18.1715 0.264357 20.7019 0.304124 20.7019C0.343891 20.7019 1.55566 20.1729 2.99728 19.5262L5.61854 18.3505V12.4232L6.8995 13.1259C7.88651 13.6669 8.87432 14.2067 9.86244 14.7456L11.5444 15.6626L12.2928 15.3217C12.7622 15.1076 13.2307 14.8915 13.6982 14.6732C14.0594 14.5037 14.9462 14.1015 15.6688 13.7792C16.3915 13.4568 17.0604 13.1324 17.1552 13.0586C17.2811 12.9604 15.7449 12.1055 11.4728 9.89637C8.25268 8.23116 5.51467 6.87398 5.38837 6.88055C5.26207 6.88712 4.0503 7.46888 2.69537 8.17366V8.17382ZM26.9389 8.53358C25.2612 9.29618 23.8873 9.95067 23.8858 9.98799C23.8843 10.0253 24.7986 10.5728 25.9178 11.2045C27.0369 11.8364 27.9526 12.3871 27.9526 12.4286C27.9526 12.4701 26.9623 12.9532 25.7521 13.5026C24.5416 14.0519 21.4823 15.4432 18.9533 16.5944L10.4793 20.4514C8.34765 21.4218 6.42628 22.2963 6.20947 22.3952C1.8555 24.3799 0.658843 24.9306 0.494527 25.0251C0.329257 25.1203 0.291876 25.6732 0.262449 28.4484L0.227295 31.7585L2.43021 32.8887L4.63296 34.0189L7.68752 32.6308C9.36758 31.8674 10.7421 31.2029 10.7421 31.1538C10.7421 31.1048 10.4316 30.9014 10.0524 30.701C9.67299 30.5006 8.88959 30.0573 8.31154 29.7153C7.73349 29.3733 7.15719 29.0597 7.03057 29.018C6.90412 28.9765 6.80247 28.904 6.80454 28.8566C6.80661 28.8093 8.15168 28.1661 9.7934 27.4268C12.9821 25.9912 15.4223 24.8847 20.6612 22.4991C23.0037 21.4325 25.3468 20.367 27.6898 19.3015C29.7491 18.3654 32.1435 17.2724 33.0106 16.8723L34.5871 16.1449L34.6221 12.7972L34.6573 9.44963L32.423 8.29492C31.1941 7.65981 30.1438 7.1418 30.0887 7.14372C30.0337 7.14548 28.6161 7.77097 26.9386 8.53374L26.9389 8.53358ZM33.9887 20.6108C33.6594 20.7727 33.0092 21.076 32.5436 21.2845C32.078 21.4931 31.1945 21.8945 30.5802 22.1767L29.4636 22.6896L29.4381 25.6285C29.4241 27.2449 29.365 28.5602 29.3067 28.5518C29.1746 28.5319 27.0816 27.451 24.9777 26.3158C23.4593 25.4965 23.3639 25.464 23.0071 25.642C22.8008 25.745 21.5678 26.3017 20.2671 26.8795C18.9665 27.4573 17.86 27.9678 17.8078 28.0139C17.756 28.06 20.3736 29.4886 23.625 31.1889L29.5366 34.2802L32.0619 32.9646C33.4507 32.2413 34.6317 31.5814 34.6861 31.4984C34.8085 31.3118 34.798 20.2906 34.6754 20.3055C34.6269 20.3114 34.3178 20.4487 33.9886 20.6106L33.9887 20.6108ZM20.0044 33.5469C19.5663 33.7365 19.1284 33.9265 18.6906 34.1166C17.3686 34.6926 17.6276 34.7117 16.0547 33.9233C15.0071 33.3982 14.5555 33.2361 14.3596 33.3148C14.2126 33.3737 12.9472 33.947 11.5476 34.5887C10.148 35.2304 8.95433 35.7553 8.895 35.7553C8.30772 35.7553 9.28407 36.3426 13.0511 38.2561L17.469 40.5L19.3279 39.576C20.3502 39.0677 22.4123 38.0498 23.9104 37.3143C25.4083 36.5784 26.6155 35.9572 26.5929 35.9339C26.5702 35.9105 25.315 35.2614 23.8035 34.4916L21.0553 33.092L20.0044 33.5472V33.5469Z" fill="#08A2C9"/>
</svg>
