<svg width="35" height="41" viewBox="0 0 35 41" fill="none" xmlns="http://www.w3.org/2000/svg">
<g id="Layer_1" clip-path="url(#clip0_31_2938)">
<path id="Vector" d="M34.8835 10.6033V20.5702L26.2502 15.5868L17.6169 10.5799L26.2736 5.6199L34.9069 0.636475L34.8835 10.6033Z" fill="#072B38"/>
<path id="Vector_2" d="M17.5936 20.5467V30.5135L8.96029 25.5301L0.327026 20.5233L8.96029 15.5633L17.5936 10.5798V20.5467Z" fill="#144556"/>
<path id="Vector_3" d="M0.327026 10.5565V0.5896L8.96029 5.57303L17.5936 10.5565L8.96029 15.5633L0.327026 20.5233V10.5565Z" fill="#41D9BF"/>
<path id="Vector_4" d="M0.303589 30.4903L0.326985 20.5234L8.96025 25.5303L17.5935 30.5137L8.96025 35.4971L0.303589 40.4571V30.4903Z" fill="#072B38"/>
<path id="Vector_5" d="M26.2502 15.5867L17.6169 10.5798V30.5135L26.2268 35.5204L34.8601 40.5038V30.5369L34.8835 20.5701L26.2502 15.5867Z" fill="#41D9BF"/>
</g>
<defs>
<clipPath id="clip0_31_2938">
<rect width="34.7826" height="40" fill="white" transform="translate(0.108643 0.5)"/>
</clipPath>
</defs>
</svg>
