<svg width="39" height="41" viewBox="0 0 39 41" fill="none" xmlns="http://www.w3.org/2000/svg">
<g id="Layer_1" clip-path="url(#clip0_31_2946)">
<g id="&#231;&#188;&#150;&#231;&#187;&#132;">
<path id="Fill-77" d="M31.7821 3.78204C29.1411 1.60256 25.5257 0.525635 20.9103 0.525635H9.42315V2.14102H20.7052C24.6283 2.14102 28.1667 2.93589 30.3462 4.83333C32.5257 6.73076 34.1411 9.49999 34.1411 12.9359C34.1411 16.3718 32.7052 18.7051 30.4744 20.5769C28.2437 22.4487 24.1924 23.2692 20.1667 23.2692H7.21802V24.8846H20.2693C25.1155 24.8846 28.9103 23.8333 31.6539 21.7308C34.3719 19.6282 35.7565 16.6538 35.7565 12.8333C35.7565 9.01281 34.4231 5.93589 31.7821 3.78204Z" fill="black"/>
<path id="Fill-79" d="M30.8077 6.08966C29.1666 4.83325 27.2948 3.83325 21.9615 3.83325H13.0897V5.39735C13.0897 5.39735 17.0641 5.34607 21.7564 5.39735C26.2949 5.44864 27.9615 5.96146 29.5 7.08966C31.4487 8.52556 32.6795 10.3204 32.6795 12.8076C32.6795 15.2948 31.4487 16.9102 29.4743 18.3717C27.4743 19.8589 24.3974 19.8589 23.141 19.9102H16.5513V21.4743C16.5513 21.4743 19.5769 21.5256 21.4743 21.4743C25.782 21.3717 28.3461 21.1153 30.7307 19.3461C32.9615 17.6794 34.141 15.4999 34.141 12.7307C34.141 9.08966 32.2949 7.26915 30.8077 6.08966Z" fill="black"/>
<path id="Fill-80" d="M30.0128 8.16657C28.7821 7.39734 27.7051 6.88452 22.6026 6.88452H16.218V7.91016H22.4231C26.9359 7.91016 28.6282 8.70503 29.1667 9.03837C30.1923 9.65375 31.5257 10.6794 31.5257 12.7307C31.5257 14.0384 30.7564 15.705 29.6026 16.3461C28.5513 16.9358 26.6282 17.4743 23.2692 17.4743H2.44873V18.4999H23.3205C27.3974 18.4999 28.7821 18.0384 30.218 17.2435C31.6539 16.4486 32.6282 14.8076 32.6282 12.7307C32.6282 10.3717 31.3205 8.98709 30.0128 8.16657Z" fill="black"/>
</g>
<path id="Fill-81" d="M34.0641 19.5257C31.4231 17.3462 27.8077 16.2693 23.1923 16.2693H15.5V17.8847H22.9615C26.8846 17.8847 30.4231 18.7052 32.6026 20.577C34.7821 22.4488 36.4231 25.2436 36.4231 28.6795C36.4231 32.1154 35.0128 34.4488 32.7564 36.3206C30.5 38.1924 26.4744 39.0129 22.4487 39.0129H9.5V40.6283H22.5513C27.3974 40.6283 31.1923 39.577 33.9359 37.4744C36.6795 35.3719 38.0385 32.3975 38.0385 28.577C38.0128 24.7052 36.7051 21.7052 34.0641 19.5257Z" fill="black"/>
<path id="Fill-82" d="M33.0898 21.8333C31.4488 20.6025 29.577 19.5769 24.2437 19.5769H12.1924V21.141C12.1924 21.141 19.3462 21.0897 24.0385 21.141C28.577 21.1923 30.2437 21.7051 31.7821 22.8333C33.7308 24.2692 34.9616 26.0641 34.9616 28.5513C34.9616 31.0384 33.7308 32.6538 31.7565 34.1154C29.7565 35.6025 26.6796 35.6025 25.4232 35.6538H18.8334V37.2179C18.8334 37.2179 21.8847 37.2692 23.7565 37.2179C28.0642 37.1154 30.6283 36.859 33.0129 35.0897C35.2437 33.4231 36.4232 31.2436 36.4232 28.4743C36.4232 24.859 34.6026 23.0128 33.0898 21.8333Z" fill="black"/>
<path id="Fill-83" d="M14.7565 27.1667H26.0642V26.2949H14.7565V27.1667Z" fill="black"/>
<path id="Fill-84" d="M19.4231 30.218H25.9872V29.4744H19.4231V30.218Z" fill="black"/>
<path id="Fill-85" d="M9.5 27.1667H12.8333V26.2949H9.5V27.1667Z" fill="black"/>
<path id="Fill-86" d="M7.39746 30.2693H17.5769V29.3975H7.39746V30.2693Z" fill="black"/>
<path id="Fill-87" d="M9.9104 7.83343H13.8848V7.11548H9.9104V7.83343Z" fill="black"/>
<path id="Fill-88" d="M7.16675 13.6794H16.218V12.8589H7.16675V13.6794Z" fill="black"/>
<path id="Fill-89" d="M7.39746 37.1155H16.9616V36.0898H7.39746V37.1155Z" fill="black"/>
<path id="Fill-90" d="M5.03857 40.5258H7.42319V39.0129H5.03857V40.5258Z" fill="black"/>
<path id="Fill-91" d="M10.9873 11.1154H26.0129V10.2949H10.9873V11.1154Z" fill="black"/>
<path id="Fill-92" d="M18.5 13.6794H25.7308V12.8589H18.5V13.6794Z" fill="black"/>
<path id="Fill-93" d="M32.2949 24.064C31.0642 23.3204 29.9872 22.8076 24.8847 22.8076H16.7821V23.8076H24.7308C29.2437 23.8076 30.9616 24.5768 31.4744 24.8845C32.4744 25.4743 33.8334 26.4486 33.8334 28.4486C33.8334 29.7307 33.0642 31.3204 31.9103 31.9358C30.859 32.4999 28.936 33.0127 25.577 33.0127H4.73083V34.0127H25.6026C29.6796 34.0127 31.0642 33.5768 32.5001 32.8076C33.936 32.0384 34.8847 30.4743 34.8847 28.4486C34.9103 26.2179 33.6026 24.8845 32.2949 24.064Z" fill="black"/>
</g>
<defs>
<clipPath id="clip0_31_2946">
<rect width="37.3333" height="40" fill="white" transform="translate(0.833374 0.5)"/>
</clipPath>
</defs>
</svg>
