<svg width="113" height="109" viewBox="0 0 113 109" fill="none" xmlns="http://www.w3.org/2000/svg">
<path d="M99.3565 51.9579H109.647C110.048 51.9579 110.609 51.8357 111.037 51.3503C111.435 50.9005 111.502 50.3785 111.502 50.0561V38.4019C111.502 38.0795 111.435 37.5575 111.037 37.1077C110.609 36.6222 110.048 36.5 109.647 36.5H99.3565C98.9553 36.5 98.3946 36.6222 97.966 37.1077C97.5688 37.5575 97.5017 38.0795 97.5017 38.4019V50.0561C97.5017 50.3785 97.5688 50.9005 97.966 51.3503C98.3946 51.8357 98.9553 51.9579 99.3565 51.9579ZM99.3565 82.5H109.647C110.048 82.5 110.609 82.3778 111.037 81.8923C111.435 81.4425 111.502 80.9205 111.502 80.5981V68.9439C111.502 68.6215 111.435 68.0995 111.037 67.6497C110.609 67.1643 110.048 67.0421 109.647 67.0421H99.3565C98.9553 67.0421 98.3946 67.1643 97.966 67.6497C97.5688 68.0995 97.5017 68.6215 97.5017 68.9439V80.5981C97.5017 80.9205 97.5688 81.4425 97.966 81.8923C98.3946 82.3778 98.9553 82.5 99.3565 82.5Z" fill="#EA3323" stroke="black" stroke-width="3"/>
<path d="M60.9621 100.388L60.9392 100.518V100.649C60.9392 100.921 60.9855 101.401 61.327 101.837C61.7232 102.343 62.2802 102.5 62.714 102.5H70.5462C70.942 102.5 71.4501 102.379 71.8585 101.962C72.2229 101.589 72.3414 101.149 72.378 100.838L72.9454 96.886H79.9295L80.4971 100.839C80.5378 101.182 80.677 101.641 81.0762 102.011C81.4984 102.403 81.9986 102.5 82.3631 102.5H90.161C90.5357 102.5 91.1357 102.385 91.5652 101.837C91.9548 101.34 91.9567 100.789 91.9286 100.503L91.9235 100.45L91.9146 100.398L83.5328 51.0296L83.5238 50.9765L83.511 50.9241C83.4341 50.6102 83.2594 50.2163 82.8829 49.9086C82.4985 49.5946 82.0629 49.5 81.7105 49.5H71.508C71.1556 49.5 70.7199 49.5946 70.3356 49.9086C69.9591 50.2163 69.7844 50.6102 69.7075 50.9241L69.6959 50.9715L69.6874 51.0196L60.9621 100.388ZM76.5239 75.2422L78.0913 86.2018H74.8071L76.5239 75.2422Z" fill="#EA3323" stroke="black" stroke-width="3"/>
<path d="M12.4667 93.8419L12.4714 93.8474C15.7536 97.6637 19.8669 100.374 24.7775 101.973C29.7669 103.598 34.6929 103.834 39.523 102.649L39.5346 102.646C44.3257 101.43 48.611 99.1443 52.3758 95.8058L52.3828 95.7995L52.3898 95.7932C56.1537 92.3701 58.8561 88.1174 60.5001 83.0692L62.4426 77.1043C62.5691 76.7161 62.6507 76.1311 62.3493 75.5403C62.0482 74.9503 61.5276 74.6732 61.1408 74.5472L46.5369 69.7913C46.1501 69.6654 45.5662 69.5828 44.9755 69.8823C44.3839 70.1823 44.1054 70.7032 43.979 71.0914L42.0365 77.0564C41.2665 79.4206 39.7754 81.3126 37.487 82.7548C35.2955 84.1039 33.0913 84.3719 30.7571 83.6118C28.5187 82.8828 26.9133 81.4615 25.8794 79.2631C24.87 77.0477 24.7662 74.5694 25.6899 71.733L38.7561 31.6108C39.5565 29.1529 40.9654 27.2719 42.9941 25.9068C44.8678 24.6459 47.0643 24.3656 49.7648 25.2451C52.1319 26.0159 53.7757 27.4972 54.7808 29.7595C55.8037 32.0617 55.9188 34.428 55.1026 36.9342L53.1805 42.8364C53.0541 43.2246 52.9724 43.8095 53.2739 44.4004C53.575 44.9903 54.0955 45.2675 54.4823 45.3934L68.9604 50.1083C69.3472 50.2343 69.9311 50.3169 70.5218 50.0173C71.1134 49.7173 71.3919 49.1964 71.5183 48.8082L73.4404 42.9061C75.0833 37.8612 75.3921 32.8725 74.3363 27.9675C73.3435 23.0685 71.2486 18.742 68.0546 15.0142C64.8738 11.2662 60.7462 8.58198 55.7239 6.94641C50.7696 5.33298 45.8178 5.11538 40.9001 6.31174C36.0719 7.47165 31.8276 9.73412 28.1898 13.0889C24.5492 16.4169 21.9207 20.5993 20.2932 25.5957C20.2929 25.5964 20.2927 25.5972 20.2924 25.5979L7.10183 65.6746L7.10037 65.6791C5.44507 70.762 5.09475 75.8004 6.07685 80.7694L6.07868 80.7786L6.08063 80.7879C7.11622 85.702 9.24677 90.061 12.4667 93.8419Z" fill="#EA3323" stroke="black" stroke-width="3"/>
</svg>
