<svg width="32" height="33" viewBox="0 0 32 33" fill="none" xmlns="http://www.w3.org/2000/svg">
<g clip-path="url(#clip0_1795_1480)">
<path d="M30.08 0.470215H9.6C9.09078 0.470215 8.60242 0.6725 8.24235 1.03257C7.88228 1.39264 7.68 1.881 7.68 2.39021V8.15021H1.92C1.41078 8.15021 0.922425 8.3525 0.562355 8.71257C0.202285 9.07264 0 9.561 0 10.0702V30.5502C0 31.0594 0.202285 31.5478 0.562355 31.9079C0.922425 32.2679 1.41078 32.4702 1.92 32.4702H22.4C22.9092 32.4702 23.3976 32.2679 23.7576 31.9079C24.1177 31.5478 24.32 31.0594 24.32 30.5502V24.7902H30.08C30.5892 24.7902 31.0776 24.5879 31.4376 24.2279C31.7977 23.8678 32 23.3794 32 22.8702V2.39021C32 1.881 31.7977 1.39264 31.4376 1.03257C31.0776 0.6725 30.5892 0.470215 30.08 0.470215ZM20.48 28.6302H3.84V11.9902H20.48V28.6302ZM28.16 20.9502H24.32V10.0702C24.32 9.561 24.1177 9.07264 23.7576 8.71257C23.3976 8.3525 22.9092 8.15021 22.4 8.15021H11.52V4.31021H28.16V20.9502Z" fill="#F4F2EB"/>
</g>
<defs>
<clipPath id="clip0_1795_1480">
<rect width="32" height="32" fill="white" transform="translate(0 0.470215)"/>
</clipPath>
</defs>
</svg>
