<svg width="43" height="37" viewBox="0 0 43 37" fill="none" xmlns="http://www.w3.org/2000/svg">
<path fill-rule="evenodd" clip-rule="evenodd" d="M38.5459 0.253128C39.0746 0.0289967 39.6533 -0.0483048 40.2217 0.0292688C40.7901 0.106842 41.3275 0.336456 41.778 0.69421C42.2284 1.05196 42.5754 1.52478 42.7828 2.06344C42.9902 2.60211 43.0505 3.18693 42.9574 3.75704L38.1052 33.4023C37.6345 36.2619 34.5195 37.9018 31.9158 36.4774C29.7379 35.2857 26.5031 33.4497 23.5934 31.534C22.1386 30.5751 17.6822 27.5043 18.2299 25.3192C18.7005 23.4509 26.1886 16.4301 30.4674 12.2561C32.1469 10.6162 31.381 9.67015 29.3977 11.1786C24.4727 14.9239 16.5654 20.6193 13.951 22.2226C11.6447 23.6362 10.4423 23.8776 9.00463 23.6362C6.38169 23.1966 3.94915 22.5157 1.96376 21.686C-0.719089 20.5655 -0.588584 16.8504 1.96162 15.7686L38.5459 0.253128Z" fill="white"/>
</svg>
