<svg width="33" height="37" viewBox="0 0 33 37" fill="none" xmlns="http://www.w3.org/2000/svg">
<path d="M25.9554 5.79667C24.5503 4.19256 23.7759 2.1325 23.7765 0H17.4248V25.4889C17.3758 26.8682 16.7935 28.1747 15.8005 29.1333C14.8074 30.0918 13.4811 30.6276 12.1009 30.6278C9.18205 30.6278 6.7565 28.2433 6.7565 25.2833C6.7565 21.7478 10.1687 19.0961 13.6837 20.1856V13.69C6.59206 12.7444 0.384277 18.2533 0.384277 25.2833C0.384277 32.1283 6.05761 37 12.0804 37C18.5348 37 23.7765 31.7583 23.7765 25.2833V12.3539C26.3521 14.2036 29.4444 15.196 32.6154 15.1906V8.83889C32.6154 8.83889 28.7509 9.02389 25.9554 5.79667Z" fill="white"/>
</svg>
