<svg width="245" height="37" viewBox="0 0 245 37" fill="none" xmlns="http://www.w3.org/2000/svg">
<path d="M1.89513 9.2H5.92713C7.23913 9.2 8.22313 9.552 8.87913 10.256C9.53513 10.96 9.86313 11.992 9.86313 13.352V21.848C9.86313 23.208 9.53513 24.24 8.87913 24.944C8.22313 25.648 7.23913 26 5.92713 26H1.89513V9.2ZM5.87913 23.6C6.31113 23.6 6.63913 23.472 6.86313 23.216C7.10313 22.96 7.22313 22.544 7.22313 21.968V13.232C7.22313 12.656 7.10313 12.24 6.86313 11.984C6.63913 11.728 6.31113 11.6 5.87913 11.6H4.53513V23.6H5.87913ZM11.6451 9.2H18.8451V11.6H14.2851V16.04H17.9091V18.44H14.2851V23.6H18.8451V26H11.6451V9.2ZM23.8428 26.24C22.5628 26.24 21.5948 25.88 20.9388 25.16C20.2828 24.424 19.9548 23.376 19.9548 22.016V21.056H22.4508V22.208C22.4508 23.296 22.9068 23.84 23.8188 23.84C24.2668 23.84 24.6028 23.712 24.8268 23.456C25.0668 23.184 25.1868 22.752 25.1868 22.16C25.1868 21.456 25.0268 20.84 24.7068 20.312C24.3868 19.768 23.7948 19.12 22.9308 18.368C21.8428 17.408 21.0828 16.544 20.6508 15.776C20.2188 14.992 20.0028 14.112 20.0028 13.136C20.0028 11.808 20.3388 10.784 21.0108 10.064C21.6828 9.328 22.6588 8.96 23.9388 8.96C25.2028 8.96 26.1548 9.328 26.7948 10.064C27.4508 10.784 27.7788 11.824 27.7788 13.184V13.88H25.2828V13.016C25.2828 12.44 25.1708 12.024 24.9468 11.768C24.7228 11.496 24.3948 11.36 23.9628 11.36C23.0828 11.36 22.6428 11.896 22.6428 12.968C22.6428 13.576 22.8028 14.144 23.1228 14.672C23.4588 15.2 24.0588 15.84 24.9228 16.592C26.0268 17.552 26.7868 18.424 27.2028 19.208C27.6188 19.992 27.8268 20.912 27.8268 21.968C27.8268 23.344 27.4828 24.4 26.7948 25.136C26.1228 25.872 25.1388 26.24 23.8428 26.24ZM29.3404 9.2H31.9804V26H29.3404V9.2ZM37.7016 26.24C36.4216 26.24 35.4456 25.88 34.7736 25.16C34.1016 24.424 33.7656 23.376 33.7656 22.016V13.184C33.7656 11.824 34.1016 10.784 34.7736 10.064C35.4456 9.328 36.4216 8.96 37.7016 8.96C38.9816 8.96 39.9576 9.328 40.6296 10.064C41.3016 10.784 41.6376 11.824 41.6376 13.184V14.624H39.1416V13.016C39.1416 11.912 38.6856 11.36 37.7736 11.36C36.8616 11.36 36.4056 11.912 36.4056 13.016V22.208C36.4056 23.296 36.8616 23.84 37.7736 23.84C38.6856 23.84 39.1416 23.296 39.1416 22.208V18.92H37.8216V16.52H41.6376V22.016C41.6376 23.376 41.3016 24.424 40.6296 25.16C39.9576 25.88 38.9816 26.24 37.7016 26.24ZM43.3326 9.2H46.6446L49.2126 19.256H49.2606V9.2H51.6126V26H48.9006L45.7326 13.736H45.6846V26H43.3326V9.2ZM53.5748 9.2H60.7748V11.6H56.2148V16.04H59.8388V18.44H56.2148V23.6H60.7748V26H53.5748V9.2ZM62.2936 9.2H66.3256C67.6376 9.2 68.6216 9.552 69.2776 10.256C69.9336 10.96 70.2616 11.992 70.2616 13.352V21.848C70.2616 23.208 69.9336 24.24 69.2776 24.944C68.6216 25.648 67.6376 26 66.3256 26H62.2936V9.2ZM66.2776 23.6C66.7096 23.6 67.0376 23.472 67.2616 23.216C67.5016 22.96 67.6216 22.544 67.6216 21.968V13.232C67.6216 12.656 67.5016 12.24 67.2616 11.984C67.0376 11.728 66.7096 11.6 66.2776 11.6H64.9336V23.6H66.2776ZM75.8873 9.2H79.8713C81.2313 9.2 82.2233 9.52 82.8473 10.16C83.4713 10.784 83.7833 11.752 83.7833 13.064V13.736C83.7833 14.6 83.6393 15.304 83.3513 15.848C83.0793 16.392 82.6553 16.784 82.0793 17.024V17.072C83.3913 17.52 84.0473 18.688 84.0473 20.576V22.016C84.0473 23.312 83.7033 24.304 83.0153 24.992C82.3433 25.664 81.3513 26 80.0393 26H75.8873V9.2ZM79.5593 16.04C80.0873 16.04 80.4793 15.904 80.7353 15.632C81.0073 15.36 81.1433 14.904 81.1433 14.264V13.328C81.1433 12.72 81.0313 12.28 80.8073 12.008C80.5993 11.736 80.2633 11.6 79.7993 11.6H78.5273V16.04H79.5593ZM80.0393 23.6C80.5033 23.6 80.8473 23.48 81.0713 23.24C81.2953 22.984 81.4073 22.552 81.4073 21.944V20.48C81.4073 19.712 81.2713 19.184 80.9993 18.896C80.7433 18.592 80.3113 18.44 79.7033 18.44H78.5273V23.6H80.0393ZM87.6394 18.848L84.4474 9.2H87.2554L89.0554 15.368H89.1034L90.9034 9.2H93.4714L90.2794 18.848V26H87.6394V18.848Z" fill="#F4F2EB"/>
<path d="M116.285 11.2559L126.061 27.6173H106.509L116.285 11.2559Z" fill="#F4F2EB"/>
<path d="M132.52 19.625L124.501 6.40269L140.538 6.40269L132.52 19.625Z" fill="#F4F2EB"/>
<path d="M229.144 17.988C229.144 16.4748 229.485 15.1427 230.167 13.9919C230.87 12.841 231.818 11.9458 233.012 11.3065C234.205 10.6458 235.559 10.3154 237.072 10.3154C238.585 10.3154 239.928 10.6458 241.1 11.3065C242.293 11.9458 243.242 12.841 243.945 13.9919C244.648 15.1427 245 16.4748 245 17.988C245 19.4799 244.648 20.8119 243.945 21.9841C243.242 23.135 242.293 24.0408 241.1 24.7015C239.928 25.3408 238.585 25.6605 237.072 25.6605C235.559 25.6605 234.205 25.3408 233.012 24.7015C231.818 24.0408 230.87 23.135 230.167 21.9841C229.485 20.8119 229.144 19.4799 229.144 17.988ZM232.692 17.988C232.692 18.9044 232.884 19.7143 233.268 20.4176C233.651 21.0996 234.173 21.6431 234.834 22.048C235.495 22.4317 236.241 22.6235 237.072 22.6235C237.882 22.6235 238.617 22.4317 239.278 22.048C239.96 21.6431 240.493 21.0996 240.876 20.4176C241.26 19.7143 241.452 18.9044 241.452 17.988C241.452 17.0715 241.26 16.2617 240.876 15.5583C240.493 14.855 239.96 14.3115 239.278 13.9279C238.617 13.5443 237.882 13.3525 237.072 13.3525C236.241 13.3525 235.495 13.5443 234.834 13.9279C234.173 14.3115 233.651 14.855 233.268 15.5583C232.884 16.2617 232.692 17.0715 232.692 17.988Z" fill="#F4F2EB"/>
<path d="M213.317 10.6362H217.09L220.926 20.131L224.762 10.6362H228.567L220.926 26.6846L213.317 10.6362Z" fill="#F4F2EB"/>
<path d="M196.892 17.988C196.892 16.4748 197.233 15.1427 197.915 13.9919C198.618 12.841 199.567 11.9458 200.76 11.3065C201.954 10.6458 203.307 10.3154 204.82 10.3154C206.334 10.3154 207.676 10.6458 208.848 11.3065C210.042 11.9458 210.99 12.841 211.694 13.9919C212.397 15.1427 212.749 16.4748 212.749 17.988C212.749 19.4799 212.397 20.8119 211.694 21.9841C210.99 23.135 210.042 24.0408 208.848 24.7015C207.676 25.3408 206.334 25.6605 204.82 25.6605C203.307 25.6605 201.954 25.3408 200.76 24.7015C199.567 24.0408 198.618 23.135 197.915 21.9841C197.233 20.8119 196.892 19.4799 196.892 17.988ZM200.441 17.988C200.441 18.9044 200.632 19.7143 201.016 20.4176C201.4 21.0996 201.922 21.6431 202.583 22.048C203.243 22.4317 203.989 22.6235 204.82 22.6235C205.63 22.6235 206.366 22.4317 207.026 22.048C207.708 21.6431 208.241 21.0996 208.625 20.4176C209.008 19.7143 209.2 18.9044 209.2 17.988C209.2 17.0715 209.008 16.2617 208.625 15.5583C208.241 14.855 207.708 14.3115 207.026 13.9279C206.366 13.5443 205.63 13.3525 204.82 13.3525C203.989 13.3525 203.243 13.5443 202.583 13.9279C201.922 14.3115 201.4 14.855 201.016 15.5583C200.632 16.2617 200.441 17.0715 200.441 17.988Z" fill="#F4F2EB"/>
<path d="M190.054 16.3895C190.054 15.3026 189.83 14.482 189.382 13.9279C188.935 13.3738 188.242 13.0967 187.304 13.0967C186.665 13.0967 186.1 13.2353 185.61 13.5123C185.12 13.7681 184.736 14.1517 184.459 14.6632C184.182 15.1534 184.043 15.7288 184.043 16.3895V25.3408H180.591V10.6351H184.043V12.9049C184.512 12.0311 185.109 11.3811 185.834 10.9548C186.58 10.5286 187.464 10.3154 188.487 10.3154C190.15 10.3154 191.418 10.8269 192.291 11.8499C193.165 12.8516 193.602 14.237 193.602 16.0059V25.3408H190.054V16.3895Z" fill="#F4F2EB"/>
<path d="M167.701 20.5135C168.169 21.025 168.638 21.4726 169.107 21.8562C169.597 22.2185 170.088 22.4956 170.578 22.6874C171.068 22.8579 171.558 22.9432 172.048 22.9432C172.666 22.9432 173.146 22.8046 173.487 22.5276C173.849 22.2505 174.03 21.8669 174.03 21.3767C174.03 20.9504 173.892 20.5881 173.615 20.2897C173.338 19.9701 172.954 19.7036 172.464 19.4905C171.974 19.2561 171.398 19.0216 170.738 18.7872C170.077 18.5315 169.416 18.2331 168.756 17.8921C168.116 17.5298 167.583 17.0609 167.157 16.4854C166.752 15.91 166.55 15.1854 166.55 14.3115C166.55 13.4164 166.773 12.6705 167.221 12.0737C167.69 11.477 168.308 11.0401 169.075 10.763C169.864 10.4646 170.706 10.3154 171.601 10.3154C172.411 10.3154 173.167 10.4326 173.871 10.6671C174.595 10.9015 175.245 11.2106 175.821 11.5942C176.396 11.9778 176.886 12.4147 177.291 12.9049L175.373 14.9509C174.883 14.3755 174.297 13.9066 173.615 13.5443C172.933 13.182 172.23 13.0008 171.505 13.0008C171.015 13.0008 170.61 13.1074 170.29 13.3205C169.97 13.5336 169.811 13.8427 169.811 14.2476C169.811 14.5886 169.949 14.8976 170.226 15.1747C170.524 15.4305 170.908 15.6649 171.377 15.878C171.867 16.0912 172.411 16.3149 173.007 16.5494C173.817 16.8691 174.563 17.2207 175.245 17.6044C175.927 17.988 176.471 18.4569 176.876 19.011C177.302 19.5651 177.515 20.2897 177.515 21.1849C177.515 22.5702 177.036 23.6891 176.076 24.5416C175.139 25.3728 173.86 25.7884 172.24 25.7884C171.238 25.7884 170.311 25.6392 169.459 25.3408C168.628 25.0211 167.892 24.6162 167.253 24.126C166.635 23.6145 166.113 23.0817 165.687 22.5276L167.701 20.5135Z" fill="#F4F2EB"/>
<path d="M147.903 17.988C147.903 16.4748 148.244 15.1427 148.926 13.9919C149.629 12.841 150.578 11.9458 151.771 11.3065C152.965 10.6458 154.318 10.3154 155.831 10.3154C157.344 10.3154 158.687 10.6458 159.859 11.3065C161.053 11.9458 162.001 12.841 162.704 13.9919C163.408 15.1427 163.759 16.4748 163.759 17.988C163.759 19.4799 163.408 20.8119 162.704 21.9841C162.001 23.135 161.053 24.0408 159.859 24.7015C158.687 25.3408 157.344 25.6605 155.831 25.6605C154.318 25.6605 152.965 25.3408 151.771 24.7015C150.578 24.0408 149.629 23.135 148.926 21.9841C148.244 20.8119 147.903 19.4799 147.903 17.988ZM151.451 17.988C151.451 18.9044 151.643 19.7143 152.027 20.4176C152.41 21.0996 152.933 21.6431 153.593 22.048C154.254 22.4317 155 22.6235 155.831 22.6235C156.641 22.6235 157.376 22.4317 158.037 22.048C158.719 21.6431 159.252 21.0996 159.635 20.4176C160.019 19.7143 160.211 18.9044 160.211 17.988C160.211 17.0715 160.019 16.2617 159.635 15.5583C159.252 14.855 158.719 14.3115 158.037 13.9279C157.376 13.5443 156.641 13.3525 155.831 13.3525C155 13.3525 154.254 13.5443 153.593 13.9279C152.933 14.3115 152.41 14.855 152.027 15.5583C151.643 16.2617 151.451 17.0715 151.451 17.988Z" fill="#F4F2EB"/>
</svg>
