<svg width="38" height="33" viewBox="0 0 38 33" fill="none" xmlns="http://www.w3.org/2000/svg">
<path fill-rule="evenodd" clip-rule="evenodd" d="M33.9959 0.723316C34.4514 0.529473 34.9501 0.462617 35.4399 0.529708C35.9297 0.596799 36.3927 0.795383 36.7809 1.10479C37.169 1.4142 37.468 1.82312 37.6467 2.28899C37.8255 2.75487 37.8774 3.26066 37.7972 3.75372L33.6161 29.3929C33.2105 31.8661 30.5263 33.2843 28.2828 32.0524C26.4061 31.0218 23.6186 29.4339 21.1115 27.7771C19.8579 26.9477 16.0178 24.2919 16.4897 22.4021C16.8953 20.7862 23.3476 14.7143 27.0347 11.1042C28.4819 9.68594 27.8219 8.86777 26.1129 10.1724C21.8691 13.4115 15.0555 18.3373 12.8027 19.7239C10.8154 20.9465 9.77929 21.1553 8.54045 20.9465C6.28028 20.5663 4.18419 19.9774 2.4734 19.2599C0.161619 18.2907 0.274074 15.0777 2.47156 14.1421L33.9959 0.723316Z" fill="#F4F2EB"/>
</svg>
