<svg width="36" height="32" viewBox="0 0 36 32" fill="none" xmlns="http://www.w3.org/2000/svg">
<g clip-path="url(#clip0_1_376)">
<path d="M31.5303 6.6817V0.230469H4.27088V6.6817H14.3202V10.8965C6.15133 11.252 0 12.8128 0 14.6848C0 16.5567 6.15133 18.1175 14.3202 18.4736V32.0004H21.4805V18.4704C29.6182 18.1091 35.7379 16.5514 35.7379 14.6848C35.7379 12.8181 29.6177 11.2599 21.4805 10.8991V6.68117H31.5298L31.5303 6.6817ZM32.6611 14.3043C32.6611 15.5355 27.9048 16.5683 21.4811 16.8551L21.0661 16.872H21.0202L20.6309 16.8858H20.5889C20.2995 16.8953 20.0063 16.9038 19.7098 16.9101H19.6918L19.2937 16.9181H19.1813L18.8673 16.9223H16.8782L16.5675 16.9181H16.4594L16.0881 16.9107H16.0472C15.6071 16.9011 15.1736 16.8879 14.7466 16.8715H14.7411L14.3158 16.854C7.86033 16.5715 3.07293 15.535 3.07293 14.298C3.07293 13.061 7.86088 12.0271 14.3158 11.7419V15.6546C15.4362 15.7112 16.6287 15.7424 17.8643 15.7424C19.0999 15.7424 20.3366 15.7107 21.4756 15.6519V11.7536C27.9048 12.0398 32.6617 13.0731 32.6617 14.3043H32.6611Z" fill="black"/>
</g>
<defs>
<clipPath id="clip0_1_376">
<rect width="36" height="32" fill="white"/>
</clipPath>
</defs>
</svg>
